<mxfile host="app.diagrams.net" modified="2023-09-05T11:51:28.612Z" agent="Mozilla/5.0 (Macintosh; Intel Mac OS X 10_15_7) AppleWebKit/605.1.15 (KHTML, like Gecko) Version/16.3 Safari/605.1.15" version="21.6.9" etag="rZrsY0Y4qLsdMODDGeas" type="github">
  <diagram name="Страница — 1" id="iuH0l2qYusq5jMuH18iS">
    <mxGraphModel>
      <root>
        <mxCell id="0" />
        <mxCell id="1" parent="0" />
      </root>
    </mxGraphModel>
  </diagram>
</mxfile>
